<?xml version="1.0" encoding="iso-8859-1"?>
<!-- Generator: Adobe Illustrator 19.0.0, SVG Export Plug-In . SVG Version: 6.00 Build 0)  -->
<svg version="1.1" id="Layer_1" xmlns="http://www.w3.org/2000/svg" xmlns:xlink="http://www.w3.org/1999/xlink" x="0px" y="0px"
	 viewBox="0 0 512 512" style="enable-background:new 0 0 512 512;" xml:space="preserve">
<g>
	<g>
		<g>
			<path d="M128,266.667c11.776,0,21.333-9.557,21.333-21.333S139.776,224,128,224s-21.333,9.557-21.333,21.333
				S116.224,266.667,128,266.667z"/>
			<path d="M213.333,266.667c11.776,0,21.333-9.557,21.333-21.333S225.109,224,213.333,224S192,233.557,192,245.333
				S201.557,266.667,213.333,266.667z"/>
			<path d="M298.667,266.667c11.776,0,21.333-9.557,21.333-21.333S310.443,224,298.667,224s-21.333,9.557-21.333,21.333
				S286.891,266.667,298.667,266.667z"/>
			<path d="M384,266.667c11.776,0,21.333-9.557,21.333-21.333S395.776,224,384,224s-21.333,9.557-21.333,21.333
				S372.224,266.667,384,266.667z"/>
			<path d="M128,330.667c11.776,0,21.333-9.557,21.333-21.333S139.776,288,128,288s-21.333,9.557-21.333,21.333
				S116.224,330.667,128,330.667z"/>
			<path d="M213.333,330.667c11.776,0,21.333-9.557,21.333-21.333S225.109,288,213.333,288S192,297.557,192,309.333
				S201.557,330.667,213.333,330.667z"/>
			<path d="M298.667,330.667c11.776,0,21.333-9.557,21.333-21.333S310.443,288,298.667,288s-21.333,9.557-21.333,21.333
				S286.891,330.667,298.667,330.667z"/>
			<path d="M384,330.667c11.776,0,21.333-9.557,21.333-21.333S395.776,288,384,288s-21.333,9.557-21.333,21.333
				S372.224,330.667,384,330.667z"/>
			<path d="M128,394.667c11.776,0,21.333-9.557,21.333-21.333S139.776,352,128,352s-21.333,9.557-21.333,21.333
				S116.224,394.667,128,394.667z"/>
			<path d="M213.333,394.667c11.776,0,21.333-9.557,21.333-21.333S225.109,352,213.333,352S192,361.557,192,373.333
				S201.557,394.667,213.333,394.667z"/>
			<path d="M298.667,394.667c11.776,0,21.333-9.557,21.333-21.333S310.443,352,298.667,352s-21.333,9.557-21.333,21.333
				S286.891,394.667,298.667,394.667z"/>
			<path d="M384,394.667c11.776,0,21.333-9.557,21.333-21.333S395.776,352,384,352s-21.333,9.557-21.333,21.333
				S372.224,394.667,384,394.667z"/>
			<path d="M469.333,74.667H448c0-11.782-9.551-21.333-21.333-21.333s-21.333,9.551-21.333,21.333h-42.667
				c0-11.782-9.551-21.333-21.333-21.333c-11.782,0-21.333,9.551-21.333,21.333h-42.667c0-11.782-9.551-21.333-21.333-21.333
				s-21.333,9.551-21.333,21.333H192c0-11.782-9.551-21.333-21.333-21.333c-11.782,0-21.333,9.551-21.333,21.333h-42.667
				c0-11.782-9.551-21.333-21.333-21.333C73.551,53.333,64,62.885,64,74.667H42.667C19.109,74.667,0,93.775,0,117.333v64V416
				c0,23.558,19.109,42.667,42.667,42.667h426.667C492.891,458.667,512,439.558,512,416V181.333v-64
				C512,93.775,492.891,74.667,469.333,74.667z M42.667,117.333H64c0,11.782,9.551,21.333,21.333,21.333
				c11.782,0,21.333-9.551,21.333-21.333h42.667c0,11.782,9.551,21.333,21.333,21.333c11.782,0,21.333-9.551,21.333-21.333h42.667
				c0,11.782,9.551,21.333,21.333,21.333s21.333-9.551,21.333-21.333H320c0,11.782,9.551,21.333,21.333,21.333
				c11.782,0,21.333-9.551,21.333-21.333h42.667c0,11.782,9.551,21.333,21.333,21.333S448,129.115,448,117.333h21.333V160H42.667
				V117.333z M469.333,416H42.667V202.667h426.667V416z"/>
		</g>
	</g>
</g>
<g>
</g>
<g>
</g>
<g>
</g>
<g>
</g>
<g>
</g>
<g>
</g>
<g>
</g>
<g>
</g>
<g>
</g>
<g>
</g>
<g>
</g>
<g>
</g>
<g>
</g>
<g>
</g>
<g>
</g>
</svg>
